<svg width="76" height="76" viewBox="0 0 76 76" fill="none" xmlns="http://www.w3.org/2000/svg">
<g id="vuesax/bold/apple">
<g id="apple">
<g id="Group">
<path id="Vector" fill-rule="evenodd" clip-rule="evenodd" d="M60.4835 60.6734C62.3519 57.8234 63.0485 56.3667 64.4735 53.1684C53.9602 49.1784 52.2819 34.2 62.6685 28.4683C59.5019 24.4783 55.0369 22.1667 50.8252 22.1667C47.7852 22.1667 45.6952 22.9584 43.8269 23.6867C42.2435 24.2884 40.8185 24.8267 39.0452 24.8267C37.1452 24.8267 35.4669 24.2251 33.6935 23.5917C31.7619 22.8951 29.7352 22.1667 27.2019 22.1667C22.4835 22.1667 17.4485 25.0484 14.2502 29.9884C9.75354 36.955 10.5452 50.0017 17.7969 61.1483C20.3936 65.1383 23.8769 69.6034 28.4052 69.6667C30.3052 69.6984 31.5402 69.1284 32.9019 68.5267C34.4535 67.8301 36.1319 67.07 39.0769 67.07C42.0219 67.0383 43.6685 67.8301 45.2202 68.5267C46.5502 69.1284 47.7535 69.6984 49.6219 69.6667C54.2135 69.6034 57.8869 64.6634 60.4835 60.6734Z" fill="white"/>
</g>
<path id="Vector_2" fill-rule="evenodd" clip-rule="evenodd" d="M50.1604 6.33331C50.6671 9.81665 49.2421 13.2684 47.3737 15.675C45.3787 18.2717 41.8954 20.2983 38.5387 20.1716C37.9371 16.815 39.4887 13.3633 41.3887 11.0516C43.5104 8.51828 47.0887 6.55498 50.1604 6.33331Z" fill="white"/>
</g>
</g>
</svg>
