<svg width="149" height="28" viewBox="0 0 149 28" fill="none" xmlns="http://www.w3.org/2000/svg">
<g id="Logo">
<g id="Group 2">
<path id="path802" d="M35.1122 20.1197C34.2697 20.1197 33.505 19.9246 32.84 19.5399C32.1763 19.1567 31.6456 18.591 31.2622 17.858C30.8766 17.1214 30.6812 16.2495 30.6812 15.2661C30.6812 14.2686 30.8766 13.3969 31.2618 12.6755C31.6444 11.9582 32.1751 11.4037 32.8386 11.0274C33.5045 10.6497 34.2694 10.4583 35.1122 10.4583C35.9239 10.4583 36.677 10.657 37.35 11.049C38.0219 11.4403 38.5607 12.0067 38.9518 12.7329C39.3442 13.462 39.5433 14.3223 39.5433 15.2889C39.5433 16.2561 39.3442 17.1161 38.9518 17.8451C38.5609 18.571 38.0221 19.1374 37.35 19.5289C36.677 19.9207 35.9241 20.1197 35.1122 20.1197ZM39.5433 11.1271C39.1554 10.5186 38.625 9.99731 37.9595 9.57184C37.0813 9.01093 36.0242 8.72639 34.8174 8.72639C33.6582 8.72639 32.603 8.99819 31.6815 9.53406C30.7579 10.0713 30.0261 10.8441 29.507 11.8314C28.9897 12.8144 28.7275 13.9699 28.7275 15.2661C28.7275 16.5625 28.9897 17.7219 29.5065 18.7117C30.0256 19.7067 30.757 20.4873 31.6805 21.0318C32.6019 21.5756 33.6498 21.8516 34.7947 21.8516C36.0022 21.8516 37.0597 21.5631 37.9377 20.994C38.6082 20.5595 39.1461 20.0297 39.5433 19.414V21.6697H41.4744V8.90827H39.5433V11.1271Z" fill="white"/>
<path id="path804" d="M50.2119 10.4587C51.054 10.4587 51.8189 10.6501 52.4862 11.0276C53.149 11.4041 53.6801 11.9586 54.0637 12.6759C54.4473 13.398 54.6425 14.2697 54.6425 15.2665C54.6425 16.2492 54.4473 17.1213 54.0614 17.8584C53.6778 18.5914 53.149 19.1571 52.4839 19.5403C51.8189 19.925 51.054 20.1201 50.2119 20.1201C49.4016 20.1201 48.648 19.9211 47.9739 19.5293C47.3025 19.1378 46.7636 18.5714 46.373 17.8455C45.9805 17.1166 45.7815 16.2565 45.7815 15.2893C45.7815 14.3227 45.9805 13.4624 46.373 12.7333C46.7638 12.0071 47.3029 11.4408 47.9739 11.0494C48.648 10.6574 49.4016 10.4587 50.2119 10.4587ZM53.6438 9.53448C52.7223 8.99861 51.6736 8.7268 50.5296 8.7268C49.3221 8.7268 48.2644 9.01522 47.3869 9.58433C46.7164 10.0189 46.1784 10.5441 45.7815 11.151V8.90868H43.873V27.5371H45.7815V19.4269C46.18 20.0345 46.7218 20.5601 47.3987 20.9947C48.2848 21.5635 49.338 21.852 50.5296 21.852C51.6736 21.852 52.7223 21.5761 53.6438 21.0322C54.5676 20.4877 55.2985 19.7071 55.8182 18.7123C56.3358 17.7216 56.5968 16.5622 56.5968 15.2665C56.5968 13.971 56.3358 12.8155 55.8182 11.8318C55.2985 10.8446 54.5676 10.0717 53.6438 9.53448Z" fill="white"/>
<path id="path806" d="M60.7005 5.79301H58.7462V8.90852H57.0234V10.5951H58.7462V18.1317C58.7462 19.3728 59.039 20.2829 59.6155 20.8374C60.1921 21.3897 61.0705 21.6699 62.2303 21.6699H64.1029V19.9606H62.48C61.8036 19.9606 61.3338 19.8322 61.0818 19.579C60.8299 19.3261 60.7005 18.8392 60.7005 18.1317V10.5951H64.1029V8.90852H60.7005V5.79301Z" fill="white"/>
<path id="path808" d="M74.6188 15.8354C74.6188 17.2539 74.2761 18.3388 73.5997 19.0602C72.9278 19.7786 72.0086 20.1429 70.8691 20.1429C69.7592 20.1429 68.874 19.8014 68.2385 19.128C67.6007 18.4519 67.2761 17.4512 67.2761 16.1539V8.90894H65.3672V16.3355C65.3672 18.1196 65.8575 19.5039 66.8244 20.4499C67.7913 21.3956 69.0533 21.875 70.5741 21.875C71.5342 21.875 72.4171 21.6615 73.1957 21.2403C73.7813 20.9228 74.2579 20.495 74.6188 19.9644V21.6703H76.5504V8.90894H74.6188V15.8354Z" fill="white"/>
<path id="path810" d="M82.221 9.34173C81.6717 9.66589 81.2245 10.0925 80.8818 10.6147V8.90852H78.9502V21.6699H80.8818V14.5616C80.8818 13.1641 81.2132 12.1593 81.8669 11.5747C82.5274 10.9851 83.4194 10.686 84.518 10.686H85.1218V8.68111H84.9493C83.8802 8.68111 82.9632 8.90329 82.221 9.34173Z" fill="white"/>
<path id="path812" d="M91.9328 20.1197C91.0907 20.1197 90.3258 19.9246 89.6607 19.5399C88.9979 19.1567 88.4668 18.591 88.0832 17.858C87.6973 17.1214 87.5022 16.2495 87.5022 15.2661C87.5022 14.2686 87.6973 13.3969 88.0832 12.6755C88.4645 11.9582 88.9957 11.4037 89.6584 11.0274C90.3258 10.6497 91.0907 10.4583 91.9328 10.4583C92.7453 10.4583 93.4967 10.657 94.1708 11.049C94.8426 11.4403 95.3806 12.0067 95.7732 12.7329C96.1659 13.462 96.3634 14.3223 96.3634 15.2889C96.3634 16.2561 96.1659 17.1161 95.7732 17.8451C95.3806 18.571 94.8426 19.1374 94.1708 19.5289C93.4967 19.9207 92.7453 20.1197 91.9328 20.1197ZM96.3634 11.1271C95.9752 10.5186 95.4464 9.99731 94.7813 9.57184C93.9029 9.01093 92.8452 8.72639 91.6377 8.72639C90.4778 8.72639 89.4247 8.99819 88.5031 9.53406C87.5793 10.0713 86.8462 10.8441 86.3287 11.8314C85.8112 12.8144 85.5479 13.9699 85.5479 15.2661C85.5479 16.5625 85.8111 17.7219 86.3264 18.7117C86.8462 19.7067 87.5771 20.4873 88.5009 21.0318C89.4224 21.5756 90.471 21.8516 91.615 21.8516C92.8225 21.8516 93.8802 21.5631 94.7586 20.994C95.4282 20.5595 95.9662 20.0297 96.3634 19.414V21.6697H98.295V8.90827H96.3634V11.1271Z" fill="white"/>
<path id="path814" d="M106.024 21.6699H107.954V4.49682H106.024V21.6699Z" fill="white"/>
<path id="path816" d="M115.99 20.1197C115.148 20.1197 114.383 19.9246 113.718 19.5399C113.053 19.1567 112.524 18.591 112.141 17.858C111.755 17.1214 111.56 16.2495 111.56 15.2661C111.56 14.2686 111.755 13.3969 112.139 12.6755C112.522 11.9582 113.053 11.4037 113.716 11.0274C114.383 10.6497 115.148 10.4583 115.99 10.4583C116.801 10.4583 117.554 10.657 118.228 11.049C118.9 11.4403 119.438 12.0067 119.829 12.7329C120.221 13.462 120.421 14.3223 120.421 15.2889C120.421 16.2561 120.221 17.1161 119.829 17.8451C119.438 18.571 118.9 19.1374 118.228 19.5289C117.554 19.9207 116.803 20.1197 115.99 20.1197ZM120.421 11.1271C120.033 10.5186 119.502 9.99731 118.837 9.57184C117.958 9.01093 116.903 8.72639 115.695 8.72639C114.535 8.72639 113.48 8.99819 112.558 9.53406C111.635 10.0713 110.904 10.8441 110.384 11.8314C109.866 12.8144 109.605 13.9699 109.605 15.2661C109.605 16.5625 109.866 17.7219 110.384 18.7117C110.904 19.7067 111.635 20.4873 112.558 21.0318C113.48 21.5756 114.529 21.8516 115.673 21.8516C116.88 21.8516 117.938 21.5631 118.816 20.994C119.486 20.5595 120.024 20.0297 120.421 19.414V21.6697H122.353V8.90827H120.421V11.1271Z" fill="white"/>
<path id="path818" d="M131.091 10.4583C131.934 10.4583 132.698 10.6497 133.366 11.0272C134.029 11.4037 134.56 11.9582 134.941 12.6755C135.327 13.3976 135.522 14.2692 135.522 15.2661C135.522 16.2488 135.327 17.1209 134.941 17.858C134.557 18.591 134.026 19.1567 133.364 19.5399C132.698 19.9246 131.934 20.1197 131.091 20.1197C130.279 20.1197 129.528 19.9207 128.853 19.5289C128.182 19.1374 127.641 18.571 127.251 17.8451C126.858 17.1161 126.661 16.2561 126.661 15.2889C126.661 14.3223 126.858 13.462 127.251 12.7329C127.644 12.0067 128.182 11.4403 128.853 11.049C129.528 10.657 130.279 10.4583 131.091 10.4583ZM134.535 9.53452C133.62 8.99819 132.567 8.72639 131.409 8.72639C130.218 8.72639 129.167 9.01093 128.288 9.57184C127.614 10.0039 127.067 10.5395 126.661 11.1697V4.49657H124.752V21.6697H126.661V19.4449C127.058 20.0677 127.596 20.595 128.268 21.0179C129.144 21.5711 130.202 21.8516 131.409 21.8516C132.553 21.8516 133.602 21.5756 134.523 21.0318C135.445 20.4873 136.178 19.7067 136.696 18.7119C137.213 17.7212 137.476 16.5618 137.476 15.2661C137.476 13.9706 137.213 12.8151 136.696 11.8314C136.178 10.8444 135.449 10.0715 134.535 9.53452Z" fill="white"/>
<path id="path820" d="M147.457 16.3362C147.062 15.8784 146.583 15.5263 146.033 15.2898C145.5 15.0603 144.774 14.8204 143.882 14.5773C143.149 14.3678 142.561 14.1745 142.129 14.0029C141.716 13.839 141.367 13.6082 141.09 13.3166C140.824 13.0368 140.695 12.6851 140.695 12.2416C140.695 11.7333 140.917 11.317 141.376 10.9691C141.841 10.6151 142.463 10.4355 143.221 10.4355C144.081 10.4355 144.765 10.6475 145.253 11.0652C145.743 11.4847 145.999 12.022 146.043 12.7072L146.054 12.869H147.983L147.974 12.6876C147.911 11.4604 147.448 10.4813 146.596 9.77763C145.752 9.08014 144.631 8.72639 143.267 8.72639C142.4 8.72639 141.614 8.88459 140.929 9.19669C140.239 9.51129 139.696 9.94382 139.317 10.4822C138.936 11.0251 138.741 11.6247 138.741 12.2644C138.741 13.106 138.959 13.7901 139.383 14.297C139.798 14.7937 140.314 15.1732 140.911 15.425C141.489 15.6702 142.254 15.9176 143.18 16.161C143.879 16.3403 144.442 16.5104 144.849 16.6665C145.241 16.8163 145.568 17.0214 145.822 17.2755C146.063 17.517 146.179 17.8193 146.179 18.1997C146.179 18.7572 145.959 19.2123 145.505 19.5908C145.046 19.9717 144.402 20.165 143.584 20.165C142.645 20.165 141.889 19.9583 141.34 19.5508C140.793 19.1449 140.493 18.63 140.423 17.9764L140.407 17.8227H138.43L138.448 18.0112C138.557 19.1941 139.088 20.1422 140.025 20.829C140.951 21.5074 142.157 21.8516 143.607 21.8516C144.474 21.8516 145.255 21.6931 145.925 21.3806C146.599 21.0657 147.134 20.6293 147.513 20.0832C147.895 19.5332 148.088 18.8995 148.088 18.1961C148.072 17.4312 147.858 16.8054 147.457 16.3362Z" fill="white"/>
<g id="g822">
<g id="Clip path group">
<mask id="mask0_681_69762" style="mask-type:luminance" maskUnits="userSpaceOnUse" x="7" y="0" width="8" height="5">
<g id="clipPath828">
<path id="path826" d="M9.73723 0.698969C8.56148 0.698969 7.6084 1.65507 7.6084 2.83403V4.78515C8.31589 3.5577 8.62799 2.51351 9.87796 2.51351H14.7262L14.504 0.698969H9.73723Z" fill="white"/>
</g>
</mask>
<g mask="url(#mask0_681_69762)">
<g id="g824">
<path id="path836" d="M9.73723 0.698969C8.56148 0.698969 7.6084 1.65507 7.6084 2.83403V4.78515C8.31589 3.5577 8.62799 2.51351 9.87796 2.51351H14.7262L14.504 0.698969H9.73723Z" fill="url(#paint0_linear_681_69762)"/>
</g>
</g>
</g>
</g>
<g id="g838">
<g id="Clip path group_2">
<mask id="mask1_681_69762" style="mask-type:luminance" maskUnits="userSpaceOnUse" x="0" y="9" width="8" height="8">
<g id="clipPath844">
<path id="path842" d="M6.14445 11.1842H0.938477L0.939618 16.3496C1.15956 15.465 1.28894 14.615 1.91948 13.9823C2.55207 13.3479 3.3928 12.9985 4.28755 12.9985H6.28542C7.01584 12.9985 7.60802 12.4046 7.60802 11.672V9.71838C7.60666 10.5281 6.95204 11.1842 6.14445 11.1842Z" fill="white"/>
</g>
</mask>
<g mask="url(#mask1_681_69762)">
<g id="g840">
<path id="path852" d="M6.14445 11.1842H0.938477L0.939618 16.3496C1.15956 15.465 1.28894 14.615 1.91948 13.9823C2.55207 13.3479 3.3928 12.9985 4.28755 12.9985H6.28542C7.01584 12.9985 7.60802 12.4046 7.60802 11.672V9.71838C7.60666 10.5281 6.95204 11.1842 6.14445 11.1842Z" fill="url(#paint1_linear_681_69762)"/>
</g>
</g>
</g>
</g>
<path id="path854" d="M7.6084 9.71874C7.6084 9.71783 7.60884 9.71715 7.60884 9.71624V7.61487V4.78505C7.60884 4.78665 7.6084 4.78824 7.6084 4.78983V9.71874Z" fill="#302F2F"/>
<path id="path856" d="M14.7261 2.51336H9.87787C8.62789 2.51336 7.6108 3.53206 7.6083 4.785V7.61483V9.71619C7.6083 9.7171 7.60786 9.71778 7.60786 9.71869V11.6721C7.60786 11.9612 7.48506 12.096 7.32821 12.3138H0.939675V16.347C0.939675 16.3479 0.939453 16.3488 0.939453 16.3499L0.939675 17.3994L3.67204 21.6699H7.41129C9.09547 21.6699 10.4607 20.3007 10.4607 18.6115V14.9995V14.7539C10.4607 14.1466 11.2618 13.9305 11.5657 14.4557L15.7391 21.6699H22.6347V16.1844L14.7261 2.51336Z" fill="#ED4734"/>
<g id="g858">
<g id="Clip path group_3">
<mask id="mask2_681_69762" style="mask-type:luminance" maskUnits="userSpaceOnUse" x="12" y="7" width="10" height="15">
<g id="clipPath864">
<path id="path862" d="M12.6465 10.4128L19.2473 21.6699H21.5186L13.0646 7.25174L12.6465 10.4128Z" fill="white"/>
</g>
</mask>
<g mask="url(#mask2_681_69762)">
<g id="g860">
<path id="path872" d="M12.6465 10.4128L19.2473 21.6699H21.5186L13.0646 7.25174L12.6465 10.4128Z" fill="url(#paint2_linear_681_69762)"/>
<path id="path880" d="M12.6465 10.4128L19.2473 21.6699H21.5186L13.0646 7.25174L12.6465 10.4128Z" fill="url(#paint3_linear_681_69762)"/>
</g>
</g>
</g>
</g>
<g id="g882">
<g id="Clip path group_4">
<mask id="mask3_681_69762" style="mask-type:luminance" maskUnits="userSpaceOnUse" x="11" y="9" width="2" height="7">
<g id="clipPath888">
<path id="path886" d="M11.9938 15.3496L12.6464 10.4125L11.9811 9.2777L11.3271 14.2246L11.9938 15.3496Z" fill="white"/>
</g>
</mask>
<g mask="url(#mask3_681_69762)">
<g id="g884">
<path id="path896" d="M11.9938 15.3496L12.6464 10.4125L11.9811 9.2777L11.3271 14.2246L11.9938 15.3496Z" fill="url(#paint4_linear_681_69762)"/>
<path id="path904" d="M11.9938 15.3496L12.6464 10.4125L11.9811 9.2777L11.3271 14.2246L11.9938 15.3496Z" fill="url(#paint5_linear_681_69762)"/>
</g>
</g>
</g>
</g>
<g id="g906">
<g id="Clip path group_5">
<mask id="mask4_681_69762" style="mask-type:luminance" maskUnits="userSpaceOnUse" x="11" y="10" width="9" height="12">
<g id="clipPath912">
<path id="path910" d="M11.9941 15.3499L15.7395 21.6699H19.2475L12.6467 10.4128L11.9941 15.3499Z" fill="white"/>
</g>
</mask>
<g mask="url(#mask4_681_69762)">
<g id="g908">
<path id="path920" d="M11.9941 15.3499L15.7395 21.6699H19.2475L12.6467 10.4128L11.9941 15.3499Z" fill="url(#paint6_linear_681_69762)"/>
<path id="path928" d="M11.9941 15.3499L15.7395 21.6699H19.2475L12.6467 10.4128L11.9941 15.3499Z" fill="url(#paint7_linear_681_69762)"/>
<path id="path936" d="M11.9941 15.3499L15.7395 21.6699H19.2475L12.6467 10.4128L11.9941 15.3499Z" fill="url(#paint8_linear_681_69762)"/>
</g>
</g>
</g>
</g>
<g id="g938">
<g id="Clip path group_6">
<mask id="mask5_681_69762" style="mask-type:luminance" maskUnits="userSpaceOnUse" x="14" y="0" width="9" height="17">
<g id="clipPath944">
<path id="path942" d="M22.6347 15.0512L14.5039 0.699941L14.7261 2.51448L22.6347 16.1855V15.0512Z" fill="white"/>
</g>
</mask>
<g mask="url(#mask5_681_69762)">
<g id="g940">
<path id="path952" d="M22.6347 15.0512L14.5039 0.699941L14.7261 2.51448L22.6347 16.1855V15.0512Z" fill="url(#paint9_linear_681_69762)"/>
</g>
</g>
</g>
</g>
<g id="g954">
<g id="Clip path group_7">
<mask id="mask6_681_69762" style="mask-type:luminance" maskUnits="userSpaceOnUse" x="12" y="4" width="11" height="18">
<g id="clipPath960">
<path id="path958" d="M12.6047 4.56374L12.3877 6.20504L13.0648 7.25174L21.5188 21.6699H22.6351L12.6047 4.56374Z" fill="white"/>
</g>
</mask>
<g mask="url(#mask6_681_69762)">
<g id="g956">
<path id="path968" d="M12.6047 4.56374L12.3877 6.20504L13.0648 7.25174L21.5188 21.6699H22.6351L12.6047 4.56374Z" fill="url(#paint10_linear_681_69762)"/>
</g>
</g>
</g>
</g>
<g id="g970">
<g id="Clip path group_8">
<mask id="mask7_681_69762" style="mask-type:luminance" maskUnits="userSpaceOnUse" x="3" y="14" width="4" height="6">
<g id="clipPath976">
<path id="path974" d="M6.54142 19.7715L3.18691 14.0508L3.06934 14.9411L3.47131 15.7119L5.85164 19.7715H6.54142Z" fill="white"/>
</g>
</mask>
<g mask="url(#mask7_681_69762)">
<g id="g972">
<path id="path984" d="M6.54142 19.7715L3.18691 14.0508L3.06934 14.9411L3.47131 15.7119L5.85164 19.7715H6.54142Z" fill="url(#paint11_linear_681_69762)"/>
</g>
</g>
</g>
</g>
<g id="g986">
<g id="Clip path group_9">
<mask id="mask8_681_69762" style="mask-type:luminance" maskUnits="userSpaceOnUse" x="20" y="15" width="3" height="6">
<g id="clipPath992">
<path id="path990" d="M22.6354 19.146L20.3078 15.1769L20.1738 16.191L20.5921 16.8377L22.6354 20.3223V19.146Z" fill="white"/>
</g>
</mask>
<g mask="url(#mask8_681_69762)">
<g id="g988">
<path id="path1000" d="M22.6354 19.146L20.3078 15.1769L20.1738 16.191L20.5921 16.8377L22.6354 20.3223V19.146Z" fill="url(#paint12_linear_681_69762)"/>
</g>
</g>
</g>
</g>
<g id="g1002">
<g id="Clip path group_10">
<mask id="mask9_681_69762" style="mask-type:luminance" maskUnits="userSpaceOnUse" x="4" y="13" width="6" height="9">
<g id="clipPath1008">
<path id="path1006" d="M4.60938 13.8328L9.02002 21.207C9.30987 21.0258 9.56795 20.7995 9.78199 20.5343L5.34569 13.1173L4.60938 13.8328Z" fill="white"/>
</g>
</mask>
<g mask="url(#mask9_681_69762)">
<g id="g1004">
<path id="path1018" d="M4.60938 13.8328L9.02002 21.207C9.30987 21.0258 9.56795 20.7995 9.78199 20.5343L5.34569 13.1173L4.60938 13.8328Z" fill="url(#paint13_linear_681_69762)"/>
</g>
</g>
</g>
</g>
<g id="g1020">
<g id="Clip path group_11">
<mask id="mask10_681_69762" style="mask-type:luminance" maskUnits="userSpaceOnUse" x="0" y="13" width="10" height="9">
<g id="clipPath1026">
<path id="path1024" d="M4.60954 13.8324L0.94043 17.3994L3.6728 21.6699H7.41205C8.00287 21.6699 8.55283 21.4985 9.02018 21.2067L4.60954 13.8324Z" fill="white"/>
</g>
</mask>
<g mask="url(#mask10_681_69762)">
<g id="g1022">
<path id="path1034" d="M4.60954 13.8324L0.94043 17.3994L3.6728 21.6699H7.41205C8.00287 21.6699 8.55283 21.4985 9.02018 21.2067L4.60954 13.8324Z" fill="url(#paint14_linear_681_69762)"/>
</g>
</g>
</g>
</g>
</g>
</g>
<defs>
<linearGradient id="paint0_linear_681_69762" x1="14.3365" y1="2.58567" x2="5.16328" y2="2.83677" gradientUnits="userSpaceOnUse">
<stop stop-color="#F5783C"/>
<stop offset="1" stop-color="#EE4734"/>
</linearGradient>
<linearGradient id="paint1_linear_681_69762" x1="0.938477" y1="13.034" x2="7.60802" y2="13.034" gradientUnits="userSpaceOnUse">
<stop stop-color="#F5803D"/>
<stop offset="1" stop-color="#EE4734"/>
</linearGradient>
<linearGradient id="paint2_linear_681_69762" x1="19.2198" y1="20.0789" x2="13.8935" y2="10.0752" gradientUnits="userSpaceOnUse">
<stop stop-color="#F6863D"/>
<stop offset="1" stop-color="#EE4734"/>
</linearGradient>
<linearGradient id="paint3_linear_681_69762" x1="20.4309" y1="22.3672" x2="15.1046" y2="12.3634" gradientUnits="userSpaceOnUse">
<stop stop-color="#F6863D"/>
<stop offset="1" stop-color="#EE4734"/>
</linearGradient>
<linearGradient id="paint4_linear_681_69762" x1="16.7817" y1="21.3769" x2="11.4554" y2="11.3731" gradientUnits="userSpaceOnUse">
<stop stop-color="#F6863D"/>
<stop offset="1" stop-color="#EE4734"/>
</linearGradient>
<linearGradient id="paint5_linear_681_69762" x1="17.0933" y1="21.9656" x2="11.767" y2="11.9618" gradientUnits="userSpaceOnUse">
<stop stop-color="#F6863D"/>
<stop offset="1" stop-color="#EE4734"/>
</linearGradient>
<linearGradient id="paint6_linear_681_69762" x1="17.0601" y1="21.229" x2="11.7338" y2="11.2252" gradientUnits="userSpaceOnUse">
<stop stop-color="#F6863D"/>
<stop offset="1" stop-color="#EE4734"/>
</linearGradient>
<linearGradient id="paint7_linear_681_69762" x1="18.2712" y1="23.517" x2="12.945" y2="13.5133" gradientUnits="userSpaceOnUse">
<stop stop-color="#F6863D"/>
<stop offset="1" stop-color="#EE4734"/>
</linearGradient>
<linearGradient id="paint8_linear_681_69762" x1="17.3717" y1="21.8177" x2="12.0454" y2="11.8139" gradientUnits="userSpaceOnUse">
<stop stop-color="#F6863D"/>
<stop offset="1" stop-color="#EE4734"/>
</linearGradient>
<linearGradient id="paint9_linear_681_69762" x1="9.90009" y1="8.44274" x2="24.9265" y2="8.44274" gradientUnits="userSpaceOnUse">
<stop stop-color="#EE4734"/>
<stop offset="1" stop-color="#F5773C"/>
</linearGradient>
<linearGradient id="paint10_linear_681_69762" x1="19.114" y1="16.9655" x2="13.7877" y2="6.96171" gradientUnits="userSpaceOnUse">
<stop stop-color="#F6863D"/>
<stop offset="1" stop-color="#EE4734"/>
</linearGradient>
<linearGradient id="paint11_linear_681_69762" x1="5.27352" y1="18.2463" x2="3.4923" y2="14.9008" gradientUnits="userSpaceOnUse">
<stop stop-color="#F6863D"/>
<stop offset="1" stop-color="#EE4734"/>
</linearGradient>
<linearGradient id="paint12_linear_681_69762" x1="21.9983" y1="18.79" x2="20.4833" y2="15.9446" gradientUnits="userSpaceOnUse">
<stop stop-color="#F6863D"/>
<stop offset="1" stop-color="#EE4734"/>
</linearGradient>
<linearGradient id="paint13_linear_681_69762" x1="5.82507" y1="14.9025" x2="8.50636" y2="19.3388" gradientUnits="userSpaceOnUse">
<stop stop-color="#EE4734"/>
<stop offset="0.284381" stop-color="#EE4734"/>
<stop offset="1" stop-color="#F6863D"/>
</linearGradient>
<linearGradient id="paint14_linear_681_69762" x1="3.20862" y1="16.2957" x2="7.5808" y2="23.1102" gradientUnits="userSpaceOnUse">
<stop stop-color="#EE4734"/>
<stop offset="1" stop-color="#F6863D"/>
</linearGradient>
</defs>
</svg>
