<svg width="96" height="96" viewBox="0 0 96 96" fill="none" xmlns="http://www.w3.org/2000/svg">
<rect width="96" height="96" fill="#1E1E1E"/>
<g id="Home &#226;&#156;&#133;" clip-path="url(#clip0_470_2436)">
<rect width="1440" height="4604" transform="translate(-124 -1924)" fill="black"/>
<g id="Planet">
<g id="Degrade" filter="url(#filter0_f_470_2436)">
<path d="M1496 736C1496 238.944 1093.06 -164 596 -164C98.9438 -164 -304 238.944 -304 736C-304 1233.06 98.9436 1636 596 1636C1093.06 1636 1496 1233.06 1496 736Z" fill="url(#paint0_linear_470_2436)"/>
</g>
<g id="Degrade_2" filter="url(#filter1_f_470_2436)">
<path d="M1496 736C1496 238.944 1093.06 -164 596 -164C98.9438 -164 -304 238.944 -304 736C-304 1233.06 98.9436 1636 596 1636C1093.06 1636 1496 1233.06 1496 736Z" fill="url(#paint1_linear_470_2436)"/>
</g>
<path id="Degrade_3" d="M596 -162C1091.95 -162 1494 240.048 1494 736C1494 1231.95 1091.95 1634 596 1634C100.048 1634 -302 1231.95 -302 736C-302 240.048 100.048 -162 596 -162Z" fill="url(#paint2_linear_470_2436)" stroke="url(#paint3_linear_470_2436)" stroke-width="4"/>
<g id="Degrade_4">
<path d="M596 -162C1091.95 -162 1494 240.048 1494 736C1494 1231.95 1091.95 1634 596 1634C100.048 1634 -302 1231.95 -302 736C-302 240.048 100.048 -162 596 -162Z" fill="url(#paint4_radial_470_2436)"/>
<path d="M596 -162C1091.95 -162 1494 240.048 1494 736C1494 1231.95 1091.95 1634 596 1634C100.048 1634 -302 1231.95 -302 736C-302 240.048 100.048 -162 596 -162Z" stroke="url(#paint5_linear_470_2436)" stroke-width="4"/>
<path d="M596 -162C1091.95 -162 1494 240.048 1494 736C1494 1231.95 1091.95 1634 596 1634C100.048 1634 -302 1231.95 -302 736C-302 240.048 100.048 -162 596 -162Z" stroke="url(#paint6_linear_470_2436)" stroke-width="4"/>
</g>
<g id="Degrade_5" style="mix-blend-mode:plus-lighter" filter="url(#filter2_f_470_2436)">
<path d="M1496 736C1496 238.944 1093.06 -164 596 -164C98.9438 -164 -304 238.944 -304 736C-304 1233.06 98.9436 1636 596 1636C1093.06 1636 1496 1233.06 1496 736Z" fill="black"/>
<path d="M596 -163C1092.5 -163 1495 239.496 1495 736C1495 1232.5 1092.5 1635 596 1635C99.496 1635 -303 1232.5 -303 736C-303 239.496 99.496 -163 596 -163Z" stroke="url(#paint7_linear_470_2436)" stroke-width="2"/>
</g>
<rect id="Black" x="-304" y="-164" width="1800" height="900" fill="black"/>
</g>
<g id="Values" clip-path="url(#clip1_470_2436)">
<g id="Stars" opacity="0.4" clip-path="url(#clip2_470_2436)">
<g id="Group 40">
<path id="Vector" opacity="0.7" d="M17.6546 31.4531C18.0695 31.4531 18.4063 31.7895 18.4063 32.2044C18.4063 32.6193 18.0699 32.9556 17.6546 32.9556C17.2397 32.9556 16.9033 32.6193 16.9033 32.2044C16.9033 31.7895 17.2397 31.4531 17.6546 31.4531Z" fill="white"/>
<path id="Vector_2" d="M-0.533085 33.0864C0.118431 33.0864 0.646698 33.6142 0.646698 34.2662C0.646698 34.9177 0.118431 35.4455 -0.533085 35.4455C-1.1846 35.4455 -1.7124 34.9177 -1.7124 34.2662C-1.71287 33.6147 -1.1846 33.0864 -0.533085 33.0864Z" fill="white"/>
<path id="Vector_3" d="M71.9725 62.4505C72.7806 62.4505 73.4356 61.7954 73.4356 60.9874C73.4356 60.1793 72.7806 59.5242 71.9725 59.5242C71.1644 59.5242 70.5093 60.1793 70.5093 60.9874C70.5093 61.7954 71.1644 62.4505 71.9725 62.4505Z" fill="white"/>
</g>
</g>
<g id="Stars_2" opacity="0.4" clip-path="url(#clip3_470_2436)">
<g id="Group 40_2">
<path id="Vector_4" d="M14.9878 36.5969C14.4657 36.5969 14.0423 36.1735 14.0423 35.6519C14.0423 35.1297 14.4657 34.7064 14.9878 34.7064C15.51 34.7064 15.9329 35.1297 15.9329 35.6519C15.9329 36.1735 15.5095 36.5969 14.9878 36.5969Z" fill="white"/>
<path id="Vector_5" d="M1.47418 29.0734C0.95667 29.0734 0.537171 29.4929 0.53717 30.0104C0.53717 30.528 0.95667 30.9475 1.47418 30.9475C1.99169 30.9475 2.41119 30.528 2.41119 30.0104C2.41119 29.4929 1.99169 29.0734 1.47418 29.0734Z" fill="white"/>
<path id="Vector_6" d="M-0.97508 17.8616C-1.70234 17.8616 -2.29169 17.2721 -2.29169 16.5444C-2.29169 15.8172 -1.70234 15.2278 -0.975079 15.2278C-0.24782 15.2278 0.342102 15.8172 0.342102 16.5444C0.341632 17.2721 -0.24782 17.8616 -0.97508 17.8616Z" fill="white"/>
<path id="Vector_7" opacity="0.92" d="M83.5948 43.7576C83.1084 43.7576 82.7143 43.3629 82.7143 42.877C82.7143 42.3906 83.1084 41.9963 83.5948 41.9963C84.0812 41.9963 84.4754 42.391 84.4754 42.877C84.4754 43.3634 84.0812 43.7576 83.5948 43.7576Z" fill="white"/>
</g>
</g>
<g id="Radial" filter="url(#filter3_f_470_2436)">
<ellipse cx="6.54636" cy="492.57" rx="447.5" ry="800" transform="rotate(150 6.54636 492.57)" fill="url(#paint8_radial_470_2436)"/>
</g>
<g id="form blur" opacity="0.5" filter="url(#filter4_f_470_2436)">
<path d="M-220.984 -121.73C-125.484 -129.73 111.516 -29.7299 284.016 87.7701C317.516 72.7701 477.016 205.27 624.516 351.27C772.016 497.27 770.516 416.77 879.516 530.77C988.516 644.77 947.016 591.27 980.516 745.27C1014.02 899.27 935.016 802.27 440.016 554.27C-54.984 306.27 220.516 505.27 -173.984 416.77C-568.484 328.27 -500.984 185.27 -502.484 -29.7299C-503.984 -244.73 -316.484 -113.73 -220.984 -121.73Z" fill="#E8B8A4"/>
</g>
<g id="Noise" style="mix-blend-mode:color-burn" opacity="0.4" filter="url(#filter5_n_470_2436)">
<rect x="-124" y="-348" width="1440" height="1280" fill="white"/>
</g>
<g id="Cards-value">
<g id="Icon">
<rect x="0.5" y="0.5" width="95" height="95" rx="47.5" stroke="white" stroke-opacity="0.1"/>
<g id="Icon_2" filter="url(#filter7_i_470_2436)">
<g clip-path="url(#clip4_470_2436)">
<rect x="10" y="10" width="76" height="76" rx="38" fill="white" fill-opacity="0.05"/>
<g id="Blur" filter="url(#filter8_f_470_2436)">
<circle cx="48" cy="86" r="12" fill="white"/>
</g>
<g id="vuesax/linear/flash-circle">
<g id="vuesax/linear/flash-circle_2">
<g id="flash-circle">
<path id="Vector_8" d="M41.9134 49.3201H45.1034V56.7451C45.1034 57.8451 46.46 58.3584 47.1934 57.5334L55.0034 48.6601C55.6817 47.8901 55.1317 46.6801 54.105 46.6801H50.915V39.2551C50.915 38.1551 49.5584 37.6417 48.825 38.4667L41.015 47.3401C40.3367 48.1101 40.8867 49.3201 41.9134 49.3201Z" stroke="white" stroke-width="2" stroke-miterlimit="10" stroke-linecap="round" stroke-linejoin="round"/>
<path id="Vector_9" d="M47.945 66.3333C58.0702 66.3333 66.2784 58.1252 66.2784 48C66.2784 37.8747 58.0702 29.6666 47.945 29.6666C37.8198 29.6666 29.6117 37.8747 29.6117 48C29.6117 58.1252 37.8198 66.3333 47.945 66.3333Z" stroke="white" stroke-width="2" stroke-miterlimit="10" stroke-linecap="round" stroke-linejoin="round"/>
</g>
</g>
</g>
</g>
</g>
</g>
</g>
</g>
</g>
<defs>
<filter id="filter0_f_470_2436" x="-504" y="-364" width="2200" height="2200" filterUnits="userSpaceOnUse" color-interpolation-filters="sRGB">
<feFlood flood-opacity="0" result="BackgroundImageFix"/>
<feBlend mode="normal" in="SourceGraphic" in2="BackgroundImageFix" result="shape"/>
<feGaussianBlur stdDeviation="100" result="effect1_foregroundBlur_470_2436"/>
</filter>
<filter id="filter1_f_470_2436" x="-360" y="-220" width="1912" height="1912" filterUnits="userSpaceOnUse" color-interpolation-filters="sRGB">
<feFlood flood-opacity="0" result="BackgroundImageFix"/>
<feBlend mode="normal" in="SourceGraphic" in2="BackgroundImageFix" result="shape"/>
<feGaussianBlur stdDeviation="28" result="effect1_foregroundBlur_470_2436"/>
</filter>
<filter id="filter2_f_470_2436" x="-307" y="-167" width="1806" height="1806" filterUnits="userSpaceOnUse" color-interpolation-filters="sRGB">
<feFlood flood-opacity="0" result="BackgroundImageFix"/>
<feBlend mode="normal" in="SourceGraphic" in2="BackgroundImageFix" result="shape"/>
<feGaussianBlur stdDeviation="0" result="effect1_foregroundBlur_470_2436"/>
</filter>
<filter id="filter3_f_470_2436" x="-1064.4" y="-749.681" width="2141.9" height="2484.5" filterUnits="userSpaceOnUse" color-interpolation-filters="sRGB">
<feFlood flood-opacity="0" result="BackgroundImageFix"/>
<feBlend mode="normal" in="SourceGraphic" in2="BackgroundImageFix" result="shape"/>
<feGaussianBlur stdDeviation="257" result="effect1_foregroundBlur_470_2436"/>
</filter>
<filter id="filter4_f_470_2436" x="-1100" y="-748" width="2681.21" height="2161.32" filterUnits="userSpaceOnUse" color-interpolation-filters="sRGB">
<feFlood flood-opacity="0" result="BackgroundImageFix"/>
<feBlend mode="normal" in="SourceGraphic" in2="BackgroundImageFix" result="shape"/>
<feGaussianBlur stdDeviation="297" result="effect1_foregroundBlur_470_2436"/>
</filter>
<filter id="filter5_n_470_2436" x="-124" y="-348" width="1440" height="1280" filterUnits="userSpaceOnUse" color-interpolation-filters="sRGB">
<feFlood flood-opacity="0" result="BackgroundImageFix"/>
<feBlend mode="normal" in="SourceGraphic" in2="BackgroundImageFix" result="shape"/>
<feTurbulence type="fractalNoise" baseFrequency="100 100" stitchTiles="stitch" numOctaves="3" result="noise" seed="8172" />
<feColorMatrix in="noise" type="luminanceToAlpha" result="alphaNoise" />
<feComponentTransfer in="alphaNoise" result="coloredNoise1">
<feFuncA type="discrete" tableValues="1 1 1 1 1 1 1 1 1 1 1 1 1 1 1 1 1 1 1 1 1 1 1 1 1 1 1 1 1 1 1 1 1 1 1 1 1 1 1 1 1 1 1 1 1 1 1 1 1 1 1 0 0 0 0 0 0 0 0 0 0 0 0 0 0 0 0 0 0 0 0 0 0 0 0 0 0 0 0 0 0 0 0 0 0 0 0 0 0 0 0 0 0 0 0 0 0 0 0 0 "/>
</feComponentTransfer>
<feComposite operator="in" in2="shape" in="coloredNoise1" result="noise1Clipped" />
<feComponentTransfer in="alphaNoise" result="coloredNoise2">
<feFuncA type="discrete" tableValues="0 0 0 0 0 0 0 0 0 0 0 0 0 0 0 0 0 0 0 0 0 0 0 0 0 0 0 0 0 0 0 0 0 0 0 0 0 0 0 0 0 0 0 0 0 0 0 0 0 1 1 1 1 1 1 1 1 1 1 1 1 1 1 1 1 1 1 1 1 1 1 1 1 1 1 1 1 1 1 1 1 1 1 1 1 1 1 1 1 1 1 1 1 1 1 1 1 1 1 1 "/>
</feComponentTransfer>
<feComposite operator="in" in2="shape" in="coloredNoise2" result="noise2Clipped" />
<feFlood flood-color="rgba(0, 0, 0, 0.25)" result="color1Flood" />
<feComposite operator="in" in2="noise1Clipped" in="color1Flood" result="color1" />
<feFlood flood-color="#000000" result="color2Flood" />
<feComposite operator="in" in2="noise2Clipped" in="color2Flood" result="color2" />
<feMerge result="effect1_noise_470_2436">
<feMergeNode in="shape" />
<feMergeNode in="color1" />
<feMergeNode in="color2" />
</feMerge>
</filter>
<filter id="filter7_i_470_2436" x="10" y="10" width="76" height="76" filterUnits="userSpaceOnUse" color-interpolation-filters="sRGB">
<feFlood flood-opacity="0" result="BackgroundImageFix"/>
<feBlend mode="normal" in="SourceGraphic" in2="BackgroundImageFix" result="shape"/>
<feColorMatrix in="SourceAlpha" type="matrix" values="0 0 0 0 0 0 0 0 0 0 0 0 0 0 0 0 0 0 127 0" result="hardAlpha"/>
<feMorphology radius="1" operator="erode" in="SourceAlpha" result="effect1_innerShadow_470_2436"/>
<feOffset/>
<feGaussianBlur stdDeviation="8"/>
<feComposite in2="hardAlpha" operator="arithmetic" k2="-1" k3="1"/>
<feColorMatrix type="matrix" values="0 0 0 0 1 0 0 0 0 1 0 0 0 0 1 0 0 0 0.32 0"/>
<feBlend mode="normal" in2="shape" result="effect1_innerShadow_470_2436"/>
</filter>
<filter id="filter8_f_470_2436" x="20" y="58" width="56" height="56" filterUnits="userSpaceOnUse" color-interpolation-filters="sRGB">
<feFlood flood-opacity="0" result="BackgroundImageFix"/>
<feBlend mode="normal" in="SourceGraphic" in2="BackgroundImageFix" result="shape"/>
<feGaussianBlur stdDeviation="8" result="effect1_foregroundBlur_470_2436"/>
</filter>
<linearGradient id="paint0_linear_470_2436" x1="595.999" y1="1636" x2="595.999" y2="915" gradientUnits="userSpaceOnUse">
<stop stop-color="#FF4A02"/>
<stop offset="0.6"/>
</linearGradient>
<linearGradient id="paint1_linear_470_2436" x1="595.999" y1="1636" x2="595.999" y2="915" gradientUnits="userSpaceOnUse">
<stop stop-color="#FF4A02"/>
<stop offset="0.6"/>
</linearGradient>
<linearGradient id="paint2_linear_470_2436" x1="603.514" y1="1635.89" x2="603.514" y2="1129" gradientUnits="userSpaceOnUse">
<stop stop-color="#732101"/>
<stop offset="1"/>
</linearGradient>
<linearGradient id="paint3_linear_470_2436" x1="1496" y1="1636" x2="-303.337" y2="1670.55" gradientUnits="userSpaceOnUse">
<stop/>
<stop offset="0.32" stop-color="#FF4A02"/>
<stop offset="0.5" stop-color="#E8B8A4"/>
<stop offset="0.68" stop-color="#FF4A02"/>
<stop offset="1"/>
</linearGradient>
<radialGradient id="paint4_radial_470_2436" cx="0" cy="0" r="1" gradientUnits="userSpaceOnUse" gradientTransform="translate(595.999 2068) rotate(-90) scale(687.5 10665.2)">
<stop stop-color="#FF4A02"/>
<stop offset="1"/>
</radialGradient>
<linearGradient id="paint5_linear_470_2436" x1="1216" y1="1643" x2="-23.8532" y2="1656.54" gradientUnits="userSpaceOnUse">
<stop/>
<stop offset="0.489097" stop-color="#FF4A02"/>
<stop offset="1"/>
</linearGradient>
<linearGradient id="paint6_linear_470_2436" x1="1216" y1="1643" x2="-23.544" y2="1666.8" gradientUnits="userSpaceOnUse">
<stop/>
<stop offset="0.32" stop-color="#FF4A02"/>
<stop offset="0.5" stop-color="#E8B8A4"/>
<stop offset="0.68" stop-color="#FF4A02"/>
<stop offset="1"/>
</linearGradient>
<linearGradient id="paint7_linear_470_2436" x1="1216" y1="1643" x2="-23.544" y2="1666.8" gradientUnits="userSpaceOnUse">
<stop/>
<stop offset="0.32" stop-color="#FF4A02"/>
<stop offset="0.5" stop-color="#E8B8A4"/>
<stop offset="0.68" stop-color="#FF4A02"/>
<stop offset="1"/>
</linearGradient>
<radialGradient id="paint8_radial_470_2436" cx="0" cy="0" r="1" gradientUnits="userSpaceOnUse" gradientTransform="translate(6.54632 492.57) rotate(90) scale(800 536.005)">
<stop offset="0.65"/>
<stop offset="1" stop-color="#E8B8A4"/>
</radialGradient>
<clipPath id="clip0_470_2436">
<rect width="1440" height="4604" fill="white" transform="translate(-124 -1924)"/>
</clipPath>
<clipPath id="clip1_470_2436">
<rect width="1440" height="1280" fill="white" transform="translate(-124 -348)"/>
</clipPath>
<clipPath id="clip2_470_2436">
<rect width="1800" height="1280" fill="white" transform="translate(-304 -348)"/>
</clipPath>
<clipPath id="clip3_470_2436">
<rect width="1800" height="1280" fill="white" transform="translate(1496 932) rotate(-180)"/>
</clipPath>
<clipPath id="clip4_470_2436">
<rect x="10" y="10" width="76" height="76" rx="38" fill="white"/>
</clipPath>
</defs>
</svg>
