<svg width="96" height="96" viewBox="0 0 96 96" fill="none" xmlns="http://www.w3.org/2000/svg">
<g id="Icon">
<rect x="0.5" y="0.5" width="95" height="95" rx="47.5" stroke="white" stroke-opacity="0.1"/>
<g id="Icon_2" filter="url(#filter0_i_927_37956)">
<g clip-path="url(#clip0_927_37956)">
<rect x="10" y="10" width="76" height="76" rx="38" fill="white" fill-opacity="0.05"/>
<g id="Blur" filter="url(#filter1_f_927_37956)">
<circle cx="48" cy="86" r="12" fill="white"/>
</g>
<g id="vuesax/linear/emoji-normal">
<g id="vuesax/linear/emoji-normal_2">
<g id="emoji-normal">
<path id="Vector" d="M42.5 66.3333H53.5C62.6666 66.3333 66.3333 62.6666 66.3333 53.5V42.5C66.3333 33.3333 62.6666 29.6666 53.5 29.6666H42.5C33.3333 29.6666 29.6666 33.3333 29.6666 42.5V53.5C29.6666 62.6666 33.3333 66.3333 42.5 66.3333Z" stroke="white" stroke-width="2" stroke-linecap="round" stroke-linejoin="round"/>
<path id="Vector_2" d="M38.8334 41.125C40.6667 42.9583 43.655 42.9583 45.5067 41.125" stroke="white" stroke-width="2" stroke-miterlimit="10" stroke-linecap="round" stroke-linejoin="round"/>
<path id="Vector_3" d="M50.4933 41.125C52.3266 42.9583 55.315 42.9583 57.1666 41.125" stroke="white" stroke-width="2" stroke-linecap="round" stroke-linejoin="round"/>
<path id="Vector_4" d="M41.4 49.8334H54.6C55.5167 49.8334 56.25 50.5667 56.25 51.4834C56.25 56.0484 52.565 59.7334 48 59.7334C43.435 59.7334 39.75 56.0484 39.75 51.4834C39.75 50.5667 40.4833 49.8334 41.4 49.8334Z" stroke="white" stroke-width="2" stroke-linecap="round" stroke-linejoin="round"/>
</g>
</g>
</g>
</g>
</g>
</g>
<defs>
<filter id="filter0_i_927_37956" x="10" y="10" width="76" height="76" filterUnits="userSpaceOnUse" color-interpolation-filters="sRGB">
<feFlood flood-opacity="0" result="BackgroundImageFix"/>
<feBlend mode="normal" in="SourceGraphic" in2="BackgroundImageFix" result="shape"/>
<feColorMatrix in="SourceAlpha" type="matrix" values="0 0 0 0 0 0 0 0 0 0 0 0 0 0 0 0 0 0 127 0" result="hardAlpha"/>
<feMorphology radius="1" operator="erode" in="SourceAlpha" result="effect1_innerShadow_927_37956"/>
<feOffset/>
<feGaussianBlur stdDeviation="8"/>
<feComposite in2="hardAlpha" operator="arithmetic" k2="-1" k3="1"/>
<feColorMatrix type="matrix" values="0 0 0 0 1 0 0 0 0 1 0 0 0 0 1 0 0 0 0.32 0"/>
<feBlend mode="normal" in2="shape" result="effect1_innerShadow_927_37956"/>
</filter>
<filter id="filter1_f_927_37956" x="20" y="58" width="56" height="56" filterUnits="userSpaceOnUse" color-interpolation-filters="sRGB">
<feFlood flood-opacity="0" result="BackgroundImageFix"/>
<feBlend mode="normal" in="SourceGraphic" in2="BackgroundImageFix" result="shape"/>
<feGaussianBlur stdDeviation="8" result="effect1_foregroundBlur_927_37956"/>
</filter>
<clipPath id="clip0_927_37956">
<rect x="10" y="10" width="76" height="76" rx="38" fill="white"/>
</clipPath>
</defs>
</svg>
