<svg width="1440" height="980" viewBox="0 0 1440 980" fill="none" xmlns="http://www.w3.org/2000/svg">
<g id="Planet">
<g id="Degrade" filter="url(#filter0_f_681_69759)">
<path d="M-180 1100C-180 1597.06 222.944 2000 720 2000C1217.06 2000 1620 1597.06 1620 1100C1620 602.944 1217.06 200 720 200C222.944 200 -180 602.944 -180 1100Z" fill="url(#paint0_linear_681_69759)"/>
</g>
<g id="Degrade_2" filter="url(#filter1_f_681_69759)">
<path d="M-180 1100C-180 1597.06 222.944 2000 720 2000C1217.06 2000 1620 1597.06 1620 1100C1620 602.944 1217.06 200 720 200C222.944 200 -180 602.944 -180 1100Z" fill="url(#paint1_linear_681_69759)"/>
</g>
<path id="Degrade_3" d="M720 202C1215.95 202 1618 604.048 1618 1100C1618 1595.95 1215.95 1998 720 1998C224.048 1998 -178 1595.95 -178 1100C-178 604.048 224.048 202 720 202Z" fill="url(#paint2_linear_681_69759)" stroke="url(#paint3_linear_681_69759)" stroke-width="4"/>
<g id="Degrade_4">
<path d="M720 202C1215.95 202 1618 604.048 1618 1100C1618 1595.95 1215.95 1998 720 1998C224.048 1998 -178 1595.95 -178 1100C-178 604.048 224.048 202 720 202Z" fill="url(#paint4_radial_681_69759)"/>
<path d="M720 202C1215.95 202 1618 604.048 1618 1100C1618 1595.95 1215.95 1998 720 1998C224.048 1998 -178 1595.95 -178 1100C-178 604.048 224.048 202 720 202Z" stroke="url(#paint5_linear_681_69759)" stroke-width="4"/>
<path d="M720 202C1215.95 202 1618 604.048 1618 1100C1618 1595.95 1215.95 1998 720 1998C224.048 1998 -178 1595.95 -178 1100C-178 604.048 224.048 202 720 202Z" stroke="url(#paint6_linear_681_69759)" stroke-width="4"/>
</g>
<g id="Degrade_5" style="mix-blend-mode:plus-lighter" filter="url(#filter2_f_681_69759)">
<path d="M-180 1100C-180 1597.06 222.944 2000 720 2000C1217.06 2000 1620 1597.06 1620 1100C1620 602.944 1217.06 200 720 200C222.944 200 -180 602.944 -180 1100Z" fill="black"/>
<path d="M720 201C1216.5 201 1619 603.496 1619 1100C1619 1596.5 1216.5 1999 720 1999C223.496 1999 -179 1596.5 -179 1100C-179 603.496 223.496 201 720 201Z" stroke="url(#paint7_linear_681_69759)" stroke-width="2"/>
</g>
</g>
<defs>
<filter id="filter0_f_681_69759" x="-380" y="-7.62939e-05" width="2200" height="2200" filterUnits="userSpaceOnUse" color-interpolation-filters="sRGB">
<feFlood flood-opacity="0" result="BackgroundImageFix"/>
<feBlend mode="normal" in="SourceGraphic" in2="BackgroundImageFix" result="shape"/>
<feGaussianBlur stdDeviation="100" result="effect1_foregroundBlur_681_69759"/>
</filter>
<filter id="filter1_f_681_69759" x="-236" y="144" width="1912" height="1912" filterUnits="userSpaceOnUse" color-interpolation-filters="sRGB">
<feFlood flood-opacity="0" result="BackgroundImageFix"/>
<feBlend mode="normal" in="SourceGraphic" in2="BackgroundImageFix" result="shape"/>
<feGaussianBlur stdDeviation="28" result="effect1_foregroundBlur_681_69759"/>
</filter>
<filter id="filter2_f_681_69759" x="-183" y="197" width="1806" height="1806" filterUnits="userSpaceOnUse" color-interpolation-filters="sRGB">
<feFlood flood-opacity="0" result="BackgroundImageFix"/>
<feBlend mode="normal" in="SourceGraphic" in2="BackgroundImageFix" result="shape"/>
<feGaussianBlur stdDeviation="0" result="effect1_foregroundBlur_681_69759"/>
</filter>
<linearGradient id="paint0_linear_681_69759" x1="720" y1="200" x2="720" y2="921" gradientUnits="userSpaceOnUse">
<stop stop-color="#FF4A02"/>
<stop offset="0.6"/>
</linearGradient>
<linearGradient id="paint1_linear_681_69759" x1="720" y1="200" x2="720" y2="921" gradientUnits="userSpaceOnUse">
<stop stop-color="#FF4A02"/>
<stop offset="0.6"/>
</linearGradient>
<linearGradient id="paint2_linear_681_69759" x1="712.485" y1="200.114" x2="712.485" y2="707" gradientUnits="userSpaceOnUse">
<stop stop-color="#732101"/>
<stop offset="1"/>
</linearGradient>
<linearGradient id="paint3_linear_681_69759" x1="-180" y1="200" x2="1619.34" y2="165.446" gradientUnits="userSpaceOnUse">
<stop/>
<stop offset="0.32" stop-color="#FF4A02"/>
<stop offset="0.5" stop-color="#E8B8A4"/>
<stop offset="0.68" stop-color="#FF4A02"/>
<stop offset="1"/>
</linearGradient>
<radialGradient id="paint4_radial_681_69759" cx="0" cy="0" r="1" gradientUnits="userSpaceOnUse" gradientTransform="translate(720 -232) rotate(90) scale(687.5 10665.2)">
<stop stop-color="#FF4A02"/>
<stop offset="1"/>
</radialGradient>
<linearGradient id="paint5_linear_681_69759" x1="100" y1="193" x2="1339.85" y2="179.464" gradientUnits="userSpaceOnUse">
<stop/>
<stop offset="0.489097" stop-color="#FF4A02"/>
<stop offset="1"/>
</linearGradient>
<linearGradient id="paint6_linear_681_69759" x1="100" y1="193" x2="1339.54" y2="169.196" gradientUnits="userSpaceOnUse">
<stop/>
<stop offset="0.32" stop-color="#FF4A02"/>
<stop offset="0.5" stop-color="#E8B8A4"/>
<stop offset="0.68" stop-color="#FF4A02"/>
<stop offset="1"/>
</linearGradient>
<linearGradient id="paint7_linear_681_69759" x1="100" y1="193" x2="1339.54" y2="169.196" gradientUnits="userSpaceOnUse">
<stop/>
<stop offset="0.32" stop-color="#FF4A02"/>
<stop offset="0.5" stop-color="#E8B8A4"/>
<stop offset="0.68" stop-color="#FF4A02"/>
<stop offset="1"/>
</linearGradient>
</defs>
</svg>
