<svg width="76" height="76" viewBox="0 0 76 76" fill="none" xmlns="http://www.w3.org/2000/svg">
<g id="vuesax/bold/twitch">
<g id="vuesax/bold/twitch_2">
<g id="twitch">
<path id="Vector" fill-rule="evenodd" clip-rule="evenodd" d="M64.917 6.33331H15.9603C14.9153 6.33331 13.902 6.87168 13.332 7.75835L8.45532 15.0416C8.10699 15.5483 7.91699 16.1816 7.91699 16.7833V57C7.91699 58.7416 9.34199 60.1666 11.0837 60.1666H17.417C19.1587 60.1666 20.5837 61.5916 20.5837 63.3333V66.5C20.5837 68.2416 22.0087 69.6666 23.7503 69.6666H28.3737C29.4187 69.6666 30.432 69.1283 31.002 68.2416L35.467 61.56C36.0686 60.6733 37.0503 60.1349 38.0953 60.1349H50.9203C51.7753 60.1349 52.567 59.7867 53.1686 59.2167L67.1336 45.2517C67.7353 44.65 68.052 43.8583 68.052 43.0033V9.49998C68.0837 7.75831 66.6587 6.33331 64.917 6.33331ZM34.1686 40.7233C34.1686 41.7366 33.3453 42.5283 32.3637 42.5283H28.7537C27.7403 42.5283 26.9486 41.7049 26.9486 40.7233V22.6416C26.9486 21.6283 27.772 20.8366 28.7537 20.8366H32.3637C33.377 20.8366 34.1686 21.66 34.1686 22.6416V40.7233ZM52.2503 40.7233C52.2503 41.7366 51.427 42.5283 50.4453 42.5283H46.8353C45.822 42.5283 45.0303 41.7049 45.0303 40.7233V22.6416C45.0303 21.6283 45.8536 20.8366 46.8353 20.8366H50.4453C51.4586 20.8366 52.2503 21.66 52.2503 22.6416V40.7233Z" fill="white"/>
</g>
</g>
</g>
</svg>
