<svg width="76" height="76" viewBox="0 0 76 76" fill="none" xmlns="http://www.w3.org/2000/svg">
<g id="vuesax/bold/windows">
<g id="vuesax/bold/windows_2">
<g id="windows">
<path id="Vector" fill-rule="evenodd" clip-rule="evenodd" d="M65.8666 7.09324L40.5333 12.1599C39.045 12.4449 38 13.7433 38 15.2633V31.6666C38 33.4083 39.425 34.8333 41.1667 34.8333H66.5C68.2417 34.8333 69.6667 33.4083 69.6667 31.6666V10.1966C69.6667 8.2016 67.83 6.71324 65.8666 7.09324Z" fill="white"/>
<path id="Vector_2" fill-rule="evenodd" clip-rule="evenodd" d="M65.8666 68.9067L40.5333 63.84C39.045 63.555 38 62.2567 38 60.7367V44.3334C38 42.5917 39.425 41.1667 41.1667 41.1667H66.5C68.2417 41.1667 69.6667 42.5917 69.6667 44.3334V65.8033C69.6667 67.7983 67.83 69.2867 65.8666 68.9067Z" fill="white"/>
<path id="Vector_3" fill-rule="evenodd" clip-rule="evenodd" d="M27.8346 14.44L8.8346 18.4616C7.37794 18.7783 6.33301 20.0766 6.33301 21.565V31.6667C6.33301 33.4083 7.75801 34.8333 9.49967 34.8333H28.4997C30.2413 34.8333 31.6663 33.4083 31.6663 31.6667V17.5117C31.6663 15.5167 29.7979 13.9966 27.8346 14.44Z" fill="white"/>
<path id="Vector_4" fill-rule="evenodd" clip-rule="evenodd" d="M27.8346 61.56L8.8346 57.5384C7.37794 57.2217 6.33301 55.9234 6.33301 54.435V44.3334C6.33301 42.5917 7.75801 41.1667 9.49967 41.1667H28.4997C30.2413 41.1667 31.6663 42.5917 31.6663 44.3334V58.4884C31.6663 60.4834 29.7979 62.0034 27.8346 61.56Z" fill="white"/>
</g>
</g>
</g>
</svg>
